<svg xmlns="http://www.w3.org/2000/svg" viewBox="0 0 512 512">
  <defs>
    <linearGradient id="grad1" x1="0%" y1="0%" x2="100%" y2="100%">
      <stop offset="0%" style="stop-color:#00A76F;stop-opacity:1" />
      <stop offset="100%" style="stop-color:#007867;stop-opacity:1" />
    </linearGradient>
  </defs>
  
  <rect width="512" height="512" rx="128" fill="url(#grad1)" />
  
  <path d="M142.2 215.1c63-63 165.1-63 228.1 0 5.4 5.4 14.1 5.4 19.5 0l21.2-21.2c5.4-5.4 5.4-14.1 0-19.5-84.3-84.3-221.1-84.3-305.4 0-5.4 5.4-5.4 14.1 0 19.5l21.2 21.2c5.3 5.4 14 5.4 19.4 0zm59.2 59.2c30.2-30.2 79.4-30.2 109.6 0 5.4 5.4 14.1 5.4 19.5 0l21.2-21.2c5.4-5.4 5.4-14.1 0-19.5-51.5-51.5-135-51.5-186.5 0-5.4 5.4-5.4 14.1 0 19.5l21.2 21.2c5.4 5.4 14.1 5.4 19.5 0z" fill="#ffffff" />
  
  <circle cx="256" cy="341.3" r="34.1" fill="#ffffff" />
</svg>
